<svg xmlns="http://www.w3.org/2000/svg" viewBox="0 0 38.51 38.51" id="instagram">
  <defs>
    <linearGradient id="a" x1="3.65" x2="34.85" y1=".66" y2="37.84" gradientUnits="userSpaceOnUse">
      <stop offset="0" stop-color="#ffe185"></stop>
      <stop offset=".21" stop-color="#ffbb36"></stop>
      <stop offset=".38" stop-color="#ff5176"></stop>
      <stop offset=".52" stop-color="#f63395"></stop>
      <stop offset=".74" stop-color="#a436d2"></stop>
      <stop offset="1" stop-color="#5f4eed"></stop>
    </linearGradient>
  </defs>
  <g style="isolation:isolate">
    <g>
      <g>
        <g>
          <rect width="38.51" height="38.51" fill="url(#a)" rx="6.97" ry="6.97"></rect>
          <g style="mix-blend-mode:multiply">
            <path fill="#d75fff" d="M38.51,31.54v-15.73c-2.59-2.58-5.19-5.16-7.78-7.74-1.51-1.58-3.63-2.57-5.98-2.57h-10.99c-4.56,0-8.27,3.71-8.27,8.27v10.99c0,2.36,1,4.49,2.59,5.99,2.6,2.59,5.2,5.18,7.81,7.77h15.65c3.83,0,6.97-3.14,6.97-6.97Z"></path>
          </g>
          <g>
            <path fill="#fff" d="M26.54 10.41c-.89 0-1.61.72-1.61 1.61s.72 1.61 1.61 1.61 1.61-.72 1.61-1.61-.72-1.61-1.61-1.61zM19.37 12.48c-3.74 0-6.78 3.04-6.78 6.78s3.04 6.78 6.78 6.78 6.78-3.04 6.78-6.78-3.04-6.78-6.78-6.78zM19.37 23.59c-2.39 0-4.34-1.95-4.34-4.34s1.95-4.34 4.34-4.34 4.34 1.95 4.34 4.34-1.95 4.34-4.34 4.34z"></path>
            <path fill="#fff" d="M24.75,33.01h-10.99c-4.56,0-8.27-3.71-8.27-8.27v-10.99c0-4.56,3.71-8.27,8.27-8.27h10.99c4.56,0,8.27,3.71,8.27,8.27v10.99c0,4.56-3.71,8.27-8.27,8.27ZM13.76,8.08c-3.13,0-5.68,2.55-5.68,5.68v10.99c0,3.13,2.55,5.68,5.68,5.68h10.99c3.13,0,5.68-2.55,5.68-5.68v-10.99c0-3.13-2.55-5.68-5.68-5.68h-10.99Z"></path>
          </g>
        </g>
      </g>
    </g>
  </g>
</svg>
